<!DOCTYPE svg PUBLIC "-//W3C//DTD SVG 1.1//EN" "http://www.w3.org/Graphics/SVG/1.1/DTD/svg11.dtd">
<!-- Uploaded to: SVG Repo, www.svgrepo.com, Transformed by: SVG Repo Mixer Tools -->
<svg fill="#f20707" version="1.1" id="Capa_1" xmlns="http://www.w3.org/2000/svg" xmlns:xlink="http://www.w3.org/1999/xlink" viewBox="0 0 60 60" xml:space="preserve" width="149px" height="149px">
<g id="SVGRepo_bgCarrier" stroke-width="0"/>
<g id="SVGRepo_tracerCarrier" stroke-linecap="round" stroke-linejoin="round"/>
<g id="SVGRepo_iconCarrier"> <g> <g> <g> <path d="M57,0H3C1.3,0,0,1.3,0,3v37v9c0,0.6,0.4,1,1,1h20v10h2V50h14v10h2V50h20c0.6,0,1-0.4,1-1v-9V3C60,1.3,58.7,0,57,0z M2,3 c0-0.6,0.4-1,1-1h54c0.6,0,1,0.4,1,1v36H42V29c0-3.9-3.1-7-7-7H25c-3.9,0-7,3.1-7,7v10H2V3z M35,32v7H25v-7h-2v7h-3V29 c0-2.8,2.2-5,5-5h4v5h-2v2h2v3h2v-3h2v-2h-2v-5h4c2.8,0,5,2.2,5,5v10h-3v-7H35z M58,48H38H22H2v-7h56V48z"/> <path d="M24,16c0,2.8,2.2,5,5,5h2c2.8,0,5-2.2,5-5v-4h2v-2h-2V7c0-0.6-0.4-1-1-1H25c-0.6,0-1,0.4-1,1v3h-2v2h2V16z M26,12h8v4h-8 V12z M31,19h-2c-0.9,0-1.7-0.4-2.3-1h6.5C32.7,18.6,31.9,19,31,19z M26,8h8v2h-8V8z"/> <rect x="27" y="13" width="2" height="2"/> <rect x="31" y="13" width="2" height="2"/> <rect x="45" y="35" width="4" height="2"/> <rect x="52" y="35" width="4" height="2"/> <rect x="45" y="31" width="4" height="2"/> <rect x="52" y="31" width="4" height="2"/> <rect x="45" y="27" width="4" height="2"/> <rect x="52" y="27" width="4" height="2"/> <rect x="45" y="23" width="4" height="2"/> <rect x="52" y="23" width="4" height="2"/> <rect x="45" y="19" width="4" height="2"/> <rect x="52" y="19" width="4" height="2"/> <rect x="45" y="15" width="4" height="2"/> <rect x="52" y="15" width="4" height="2"/> <rect x="45" y="11" width="4" height="2"/> <rect x="52" y="11" width="4" height="2"/> <rect x="45" y="7" width="4" height="2"/> <rect x="39" y="19" width="4" height="2"/> <rect x="39" y="15" width="4" height="2"/> <rect x="52" y="7" width="4" height="2"/> <rect x="4" y="35" width="4" height="2"/> <rect x="11" y="35" width="4" height="2"/> <rect x="4" y="31" width="4" height="2"/> <rect x="11" y="31" width="4" height="2"/> <rect x="4" y="27" width="4" height="2"/> <rect x="11" y="27" width="4" height="2"/> <rect x="4" y="23" width="4" height="2"/> <rect x="11" y="23" width="4" height="2"/> <rect x="4" y="19" width="4" height="2"/> <rect x="11" y="19" width="4" height="2"/> <rect x="4" y="15" width="4" height="2"/> <rect x="11" y="15" width="4" height="2"/> <rect x="4" y="11" width="4" height="2"/> <rect x="11" y="11" width="4" height="2"/> <rect x="4" y="7" width="4" height="2"/> <rect x="11" y="7" width="4" height="2"/> <rect x="17" y="19" width="4" height="2"/> <rect x="17" y="15" width="4" height="2"/> </g> </g> <g> </g> <g> </g> <g> </g> <g> </g> <g> </g> <g> </g> <g> </g> <g> </g> <g> </g> <g> </g> <g> </g> <g> </g> <g> </g> <g> </g> <g> </g> </g> </g>
</svg>